<svg width="138" height="36" viewBox="0 0 138 36" fill="none" xmlns="http://www.w3.org/2000/svg">
<path d="M33.9871 17.8234C33.9871 27.6668 26.381 35.6469 16.9951 35.6469C7.60923 35.6469 0 27.6668 0 17.8234C0 7.98009 7.60923 0 16.9951 0C26.381 0 33.9871 7.98009 33.9871 17.8234Z" fill="black" fill-opacity="0.36"/>
<path d="M17.1284 27.7617C12.4604 27.7783 7.60201 23.5998 7.58016 16.8869C7.56452 12.4499 9.85012 8.17657 12.7664 5.64207C15.614 3.17305 19.5139 1.58487 23.0484 1.57178C23.5043 1.57178 23.982 1.611 24.2724 1.7158C21.1812 2.38709 18.7208 5.40621 18.7302 8.82815C18.7302 8.94269 18.7395 9.06386 18.7519 9.11956C23.9257 10.4425 26.2737 13.7171 26.2893 18.2458C26.3018 22.7778 22.8923 27.742 17.1284 27.7617Z" fill="white"/>
<path d="M44.9613 25.2044L39.7656 12.2012H43.1596L46.4007 20.8362L49.5418 12.2012H52.7828L47.7402 25.2044H44.9613Z" fill="black" fill-opacity="0.36"/>
<path d="M61.8259 18.6359C61.8259 18.0956 61.7666 17.5815 61.6448 17.0936C61.5261 16.6057 61.345 16.1866 61.1046 15.8362C60.8642 15.4825 60.5738 15.2042 60.2303 14.9979C59.8869 14.7883 59.4841 14.6835 59.022 14.6835C58.5598 14.6835 58.1539 14.7883 57.8136 14.9979C57.4701 15.2042 57.1766 15.4825 56.9393 15.8362C56.6989 16.1866 56.5178 16.6057 56.3992 17.0936C56.2774 17.5815 56.218 18.0956 56.218 18.6359C56.218 19.1959 56.2774 19.7165 56.3992 20.1946C56.5178 20.6727 56.6927 21.0919 56.9237 21.452C57.1548 21.8123 57.4483 22.0971 57.8011 22.3067C58.1508 22.513 58.5598 22.6178 59.022 22.6178C59.4841 22.6178 59.8869 22.513 60.2303 22.3067C60.5738 22.0971 60.8642 21.8123 61.1046 21.452C61.345 21.0919 61.5261 20.6727 61.6448 20.1946C61.7665 19.7165 61.8259 19.1959 61.8259 18.6359ZM64.9638 18.6502C64.9638 19.4983 64.839 20.33 64.5923 21.1487C64.3425 21.9673 63.974 22.6975 63.4838 23.3459C62.9967 23.9943 62.3785 24.5149 61.6323 24.9112C60.886 25.3074 60.0149 25.5038 59.022 25.5038C58.0259 25.5038 57.1548 25.3073 56.4117 24.9112C55.6654 24.5149 55.0472 23.9943 54.557 23.3459C54.0699 22.6975 53.7014 21.9673 53.4516 21.1487C53.205 20.3301 53.0801 19.4983 53.0801 18.6502C53.0801 17.8054 53.205 16.9802 53.4516 16.1681C53.7014 15.3592 54.0699 14.6356 54.557 13.997C55.0472 13.3585 55.6654 12.8477 56.4117 12.4613C57.1548 12.0749 58.0259 11.8784 59.022 11.8784C60.0149 11.8784 60.8829 12.0749 61.6198 12.4613C62.3567 12.8477 62.9749 13.3585 63.4714 13.997C63.9709 14.6356 64.3425 15.3592 64.5923 16.1681C64.839 16.9802 64.9638 17.8054 64.9638 18.6502Z" fill="black" fill-opacity="0.36"/>
<path d="M74.5449 15.0633C73.9298 14.8112 73.3584 14.6835 72.8276 14.6835C72.2843 14.6835 71.8128 14.7949 71.4225 15.0109C71.0291 15.2269 70.7043 15.5185 70.4483 15.8885C70.1923 16.2585 70.0018 16.6744 69.8738 17.1361C69.7458 17.5946 69.6802 18.0694 69.6802 18.5573C69.6802 19.0976 69.7364 19.6149 69.8488 20.1127C69.9581 20.6071 70.1298 21.0427 70.3609 21.4127C70.5888 21.7827 70.8792 22.0807 71.2289 22.3066C71.5786 22.5293 71.9939 22.6439 72.4716 22.6439C72.865 22.6439 73.2647 22.5294 73.6737 22.3066C74.0828 22.0807 74.3731 21.8122 74.5449 21.5077L74.5449 15.0633ZM74.8009 25.2046L74.6729 24.2092C74.3825 24.5497 73.9985 24.851 73.5176 25.1097C73.0399 25.3716 72.4747 25.5026 71.8253 25.5026C70.9729 25.5026 70.2173 25.3128 69.5709 24.9361C68.9183 24.5596 68.3719 24.0553 67.9286 23.4266C67.4852 22.7979 67.1448 22.0676 66.9138 21.2392C66.6858 20.414 66.5703 19.5495 66.5703 18.649C66.5703 17.8042 66.689 16.9757 66.9263 16.1669C67.1667 15.358 67.5289 14.6344 68.016 13.9958C68.5062 13.3573 69.1151 12.8465 69.8519 12.4601C70.5857 12.0737 71.4506 11.8772 72.4404 11.8772C73.0898 11.8772 73.7924 12.0048 74.5449 12.2538V7.21094H77.7328V25.2046H74.8009Z" fill="black" fill-opacity="0.36"/>
<path d="M86.7132 19.1072C86.3697 19.1262 86.0138 19.1597 85.6516 19.2022C85.2894 19.2481 84.9459 19.307 84.6181 19.379C83.9249 19.523 83.4472 19.7687 83.1787 20.1191C82.9133 20.4727 82.779 20.8526 82.779 21.2685C82.779 21.6974 82.9289 22.0445 83.2318 22.3065C83.5346 22.5652 83.9593 22.6961 84.5119 22.6961C84.9272 22.6961 85.33 22.6077 85.7172 22.4276C86.1043 22.2475 86.4384 22.0216 86.7132 21.7531V19.1072ZM86.9692 25.1946L86.8444 24.222C86.4978 24.6215 86.0606 24.9359 85.5267 25.1619C84.9928 25.3879 84.4089 25.5024 83.7719 25.5024C83.238 25.5024 82.7228 25.4073 82.2357 25.2175C81.7424 25.031 81.3084 24.7591 80.9306 24.4087C80.5528 24.0583 80.2468 23.6294 80.0157 23.1153C79.7815 22.6012 79.666 22.0216 79.666 21.3732C79.666 20.7281 79.7847 20.1551 80.0282 19.6606C80.2686 19.1662 80.5934 18.7503 81.0086 18.4064C81.4208 18.0659 81.8954 17.7876 82.4293 17.5714C82.9601 17.3554 83.5221 17.1916 84.106 17.0835C84.5182 16.9951 84.9709 16.9295 85.4611 16.8837C85.9514 16.8378 86.3604 16.7986 86.6882 16.7625V16.5726C86.6882 15.8522 86.5134 15.3414 86.1574 15.0336C85.8046 14.729 85.3175 14.5751 84.6993 14.5751C84.3371 14.5751 83.9905 14.621 83.6627 14.7127C83.3348 14.8011 83.0444 14.9126 82.7853 15.0467C82.5261 15.1843 82.2982 15.3185 82.0983 15.4528C81.9016 15.587 81.7424 15.7082 81.6206 15.8162L80.5653 13.4716C80.7026 13.344 80.9118 13.1933 81.196 13.0132C81.4801 12.8331 81.8204 12.6563 82.2264 12.486C82.6291 12.3156 83.0819 12.1716 83.5877 12.0538C84.0935 11.9359 84.6399 11.877 85.2207 11.877C85.9076 11.877 86.5352 11.972 87.1004 12.1619C87.6655 12.3517 88.1557 12.6465 88.5679 13.0525C88.9769 13.4553 89.2985 13.9662 89.5327 14.5883C89.7638 15.2072 89.8793 15.957 89.8793 16.8379V25.1946H86.9692Z" fill="black" fill-opacity="0.36"/>
<path d="M99.7333 10.1775C99.6303 10.1253 99.4305 10.0466 99.1307 9.94825C98.8279 9.85011 98.4313 9.80093 97.9317 9.80093C97.4884 9.80093 97.1137 9.94184 96.8139 10.2201C96.5142 10.4984 96.3643 10.9536 96.3643 11.5823V12.2012H99.0402V14.8994H96.3893V25.2044H93.1982V14.8994H91.5527V12.2012H93.1982V11.5004C93.1982 10.6556 93.3013 9.94175 93.5073 9.3556C93.7134 8.77273 94.0007 8.29463 94.3691 7.92788C94.7375 7.55785 95.1716 7.28608 95.668 7.11579C96.1676 6.94542 96.7078 6.86035 97.2917 6.86035C98.0629 6.86035 98.6998 6.93567 99.2057 7.08965C99.7115 7.24363 100.008 7.34508 100.092 7.40075L99.7333 10.1775Z" fill="black" fill-opacity="0.36"/>
<path d="M108.429 18.6359C108.429 18.0956 108.367 17.5815 108.248 17.0936C108.13 16.6057 107.949 16.1866 107.708 15.8362C107.468 15.4825 107.177 15.2042 106.834 14.9979C106.49 14.7883 106.088 14.6835 105.625 14.6835C105.163 14.6835 104.757 14.7883 104.417 14.9979C104.074 15.2042 103.78 15.4825 103.54 15.8362C103.302 16.1866 103.121 16.6057 103 17.0936C102.881 17.5815 102.822 18.0956 102.822 18.6359C102.822 19.1959 102.881 19.7165 103 20.1946C103.121 20.6727 103.296 21.0919 103.527 21.452C103.758 21.8123 104.052 22.0971 104.402 22.3067C104.754 22.513 105.163 22.6178 105.625 22.6178C106.088 22.6178 106.49 22.513 106.834 22.3067C107.177 22.0971 107.468 21.8123 107.708 21.452C107.949 21.0919 108.13 20.6727 108.248 20.1946C108.367 19.7165 108.429 19.1959 108.429 18.6359ZM111.567 18.6502C111.567 19.4983 111.442 20.33 111.193 21.1487C110.946 21.9673 110.578 22.6975 110.087 23.3459C109.6 23.9943 108.982 24.5149 108.236 24.9112C107.49 25.3074 106.618 25.5038 105.625 25.5038C104.629 25.5038 103.758 25.3073 103.015 24.9112C102.269 24.5149 101.651 23.9943 101.16 23.3459C100.673 22.6975 100.305 21.9673 100.055 21.1487C99.8054 20.3301 99.6836 19.4983 99.6836 18.6502C99.6836 17.8054 99.8054 16.9802 100.055 16.1681C100.305 15.3592 100.673 14.6356 101.16 13.997C101.651 13.3585 102.269 12.8477 103.015 12.4613C103.758 12.0749 104.629 11.8784 105.625 11.8784C106.618 11.8784 107.486 12.0749 108.223 12.4613C108.96 12.8477 109.578 13.3585 110.075 13.997C110.574 14.6356 110.946 15.3592 111.193 16.1681C111.442 16.9802 111.567 17.8054 111.567 18.6502Z" fill="black" fill-opacity="0.36"/>
<path d="M121.469 25.2045V17.7877C121.469 16.7987 121.272 16.0325 120.879 15.4922C120.482 14.9552 119.936 14.6834 119.23 14.6834C118.734 14.6834 118.275 14.8176 117.856 15.0894C117.435 15.3579 117.069 15.6559 116.76 15.9801V25.2045H113.572V12.2013H116.479L116.632 13.2262C117.132 12.7973 117.691 12.4632 118.318 12.2307C118.943 11.995 119.573 11.8804 120.207 11.8804C120.86 11.8804 121.459 11.9818 122.009 12.1882C122.558 12.3978 123.03 12.7252 123.423 13.1738C123.82 13.6224 124.123 14.2086 124.338 14.9257C124.551 15.6461 124.66 16.5106 124.66 17.5159V25.2045H121.469Z" fill="black" fill-opacity="0.36"/>
<path d="M134.584 17.1392C134.549 16.6906 134.459 16.2977 134.312 15.9669C134.165 15.6329 133.984 15.3644 133.769 15.1581C133.553 14.9485 133.322 14.7979 133.072 14.6964C132.819 14.5983 132.566 14.5491 132.307 14.5491C131.755 14.5491 131.23 14.7651 130.731 15.1974C130.231 15.6297 129.937 16.2747 129.85 17.1392H134.584ZM129.775 19.5395C129.844 20.6364 130.168 21.4289 130.755 21.9135C131.339 22.3982 132.098 22.6437 133.025 22.6437C133.456 22.6437 133.862 22.6012 134.24 22.5226C134.618 22.4408 134.955 22.3391 135.249 22.2115C135.542 22.087 135.792 21.9594 135.998 21.8349C136.204 21.7073 136.357 21.5893 136.463 21.4813L137.312 24.209C137.191 24.2974 136.997 24.4186 136.732 24.5725C136.466 24.7264 136.135 24.8672 135.742 25.0047C135.348 25.1389 134.883 25.2536 134.352 25.3551C133.822 25.4532 133.238 25.5024 132.604 25.5024C131.795 25.5024 131.03 25.3681 130.3 25.0996C129.572 24.8278 128.932 24.4087 128.386 23.8422C127.836 23.2757 127.399 22.5717 127.074 21.7268C126.746 20.882 126.584 19.8734 126.584 18.7044C126.584 17.6074 126.734 16.6349 127.034 15.7901C127.333 14.9452 127.746 14.2346 128.267 13.6583C128.792 13.0852 129.4 12.6432 130.094 12.3354C130.79 12.0309 131.53 11.877 132.32 11.877C133.11 11.877 133.837 12.0145 134.509 12.283C135.177 12.5515 135.754 12.9707 136.245 13.5372C136.732 14.1037 137.119 14.8371 137.4 15.7376C137.684 16.6349 137.825 17.7057 137.825 18.9467V19.5394L129.775 19.5395Z" fill="black" fill-opacity="0.36"/>
</svg>
